
          <svg xmlns="http://www.w3.org/2000/svg" xmlns:cc="http://creativecommons.org/ns#" xmlns:rdf="http://www.w3.org/1999/02/22-rdf-syntax-ns#" version="1.1" width="329.7656555175781" height="134.10449981689453">
            <defs>
              <style type="text/css">svg {
          background-color: #fff; }
        
        .root text,
        .root tspan {
          font: 12px Arial; }
        
        .root path {
          fill-opacity: 0;
          stroke-width: 2px;
          stroke: #000; }
        
        .root circle {
          fill: #6b6659;
          stroke-width: 2px;
          stroke: #000; }
        
        .anchor text, .any-character text {
          fill: #fff; }
        
        .anchor rect, .any-character rect {
          fill: #6b6659; }
        
        .escape text, .charset-escape text, .literal text {
          fill: #000; }
        
        .escape rect, .charset-escape rect {
          fill: #bada55; }
        
        .literal rect {
          fill: #dae9e5; }
        
        .charset .charset-box {
          fill: #cbcbba; }
        
        .subexp .subexp-label tspan,
        .charset .charset-label tspan,
        .match-fragment .repeat-label tspan {
          font-size: 10px; }
        
        .repeat-label {
          cursor: help; }
        
        .subexp .subexp-label tspan,
        .charset .charset-label tspan {
          dominant-baseline: text-after-edge; }
        
        .subexp .subexp-box {
          stroke: #908c83;
          stroke-dasharray: 6,2;
          stroke-width: 2px;
          fill-opacity: 0; }
        
        .quote {
          fill: #908c83; }
        </style>
            </defs>
            <metadata>
              <rdf:rdf>
                <cc:license rdf:about="http://creativecommons.org/licenses/by/3.0/">
                  <cc:permits rdf:resource="http://creativecommons.org/ns#Reproduction"></cc:permits>
                  <cc:permits rdf:resource="http://creativecommons.org/ns#Distribution"></cc:permits>
                  <cc:requires rdf:resource="http://creativecommons.org/ns#Notice"></cc:requires>
                  <cc:requires rdf:resource="http://creativecommons.org/ns#Attribution"></cc:requires>
                  <cc:permits rdf:resource="http://creativecommons.org/ns#DerivativeWorks"></cc:permits>
                </cc:license>
              </rdf:rdf>
            </metadata>
          <desc>Created with Snap</desc><g transform="matrix(1,0,0,1,15,10)" class="root"><g transform="matrix(1,0,0,1,10,0)" class="regexp match"><path d="M203.04690551757812,57.052249908447266H213.0469"></path><g transform="matrix(1,0,0,1,0,0)" class="match-fragment subexp regexp"><path d="M10,32q0,-10 10,-10M193.04690551757812,32q0,-10 -10,-10M10,72.1045q0,10 10,10M193.04690551757812,72.1045q0,10 -10,10M0,57.052249908447266q10,0 10,-10V32M203.04690551757812,57.052249908447266q-10,0 -10,-10V32M0,57.052249908447266q10,0 10,10V72.1045M203.04690551757812,57.052249908447266q-10,0 -10,10V72.1045"></path><g transform="matrix(1,0,0,1,20,0)" class="regexp-matches"><path d="M0,22h38.5078M109.5391,22H163.04690551757812M0,82.1045h10M148.0469,82.1045H163.04690551757812"></path><g transform="matrix(1,0,0,1,38.5078,0)" class="match"><path d="M21.34375,22H46.3438"></path><g transform="matrix(1,0,0,1,0,10)" class="match-fragment literal"><g class="label"><rect width="21.34375" height="24" rx="3" ry="3"></rect><text x="0" y="0" transform="matrix(1,0,0,1,5,17)"><tspan class="quote">“</tspan><tspan>.</tspan><tspan class="quote">”</tspan></text></g></g><g transform="matrix(1,0,0,1,31.3438,0)" class="match-fragment"><path d="M0,22q10,0 10,-10v-2q0,-10 10,-10h14.6875q10,0 10,10v2q0,10 10,10M15,22q-10,0 -10,10v2q0,10 10,10h24.6875q10,0 10,-10v-2q0,-10 -10,-10M49.6875,37l5,-5m-5,5l-5,-5"></path><g transform="matrix(1,0,0,1,15,10)" class="literal"><g class="label"><rect width="24.6875" height="24" rx="3" ry="3"></rect><text x="0" y="0" transform="matrix(1,0,0,1,5,17)"><tspan class="quote">“</tspan><tspan>0</tspan><tspan class="quote">”</tspan></text></g></g></g></g><g transform="matrix(1,0,0,1,0,49)" class="match"><path d="M83.359425,33.1045H123.3594"></path><g transform="matrix(1,0,0,1,0,0)" class="match-fragment subexp"><rect rx="3" ry="3" class="subexp-box" transform="matrix(1,0,0,1,0,11.1045)" width="103.35942077636719" height="54"></rect><text x="0" y="0" transform="matrix(1,0,0,1,0,11.1045)" class="subexp-label"><tspan>group #1</tspan></text><g transform="matrix(1,0,0,1,10,21.1045)" class="regexp match"><path d="M21.34375,12H41.3438"></path><g transform="matrix(1,0,0,1,0,0)" class="match-fragment literal"><g class="label"><rect width="21.34375" height="24" rx="3" ry="3"></rect><text x="0" y="0" transform="matrix(1,0,0,1,5,17)"><tspan class="quote">“</tspan><tspan>.</tspan><tspan class="quote">”</tspan></text></g></g><g transform="matrix(1,0,0,1,31.3438,0)" class="match-fragment"><path d="M10,12q-10,0 -10,10v2q0,10 10,10h32.015625q10,0 10,-10v-2q0,-10 -10,-10"></path><g transform="matrix(1,0,0,1,10,0)" class="escape"><g class="label"><rect width="32.015625" height="24" rx="3" ry="3"></rect><text x="0" y="0" transform="matrix(1,0,0,1,5,17)"><tspan>digit</tspan></text></g></g></g></g></g><g transform="matrix(1,0,0,1,113.3594,21.1045)" class="match-fragment"><path d="M10,12q-10,0 -10,10v2q0,10 10,10h24.6875q10,0 10,-10v-2q0,-10 -10,-10M44.6875,27l5,-5m-5,5l-5,-5"></path><g transform="matrix(1,0,0,1,10,0)" class="literal"><g class="label"><rect width="24.6875" height="24" rx="3" ry="3"></rect><text x="0" y="0" transform="matrix(1,0,0,1,5,17)"><tspan class="quote">“</tspan><tspan>0</tspan><tspan class="quote">”</tspan></text></g></g></g></g></g></g><g transform="matrix(1,0,0,1,213.0469,45.0522)" class="match-fragment"><g class="label anchor"><rect width="66.71875" height="24"></rect><text x="0" y="0" transform="matrix(1,0,0,1,5,17)"><tspan>End of line</tspan></text></g></g></g><path d="M10,57.052249908447266H0M289.76565,57.052249908447266H299.7656555175781"></path><circle cx="0" cy="57.052249908447266" r="5"></circle><circle cx="299.7656555175781" cy="57.052249908447266" r="5"></circle></g></svg>
        